# xmcd
#
# Track frame offsets: 
#        150
#        17735
#        37099
#        57764
#        81084
#        98004
#        122972
#        144977
#        163224
#        180273
#        198656
#        213735
#        227052
#
# Disc length: 3307 seconds
#
# Revision: 2
# Processed by: cddbd v1.5.2PL0 Copyright (c) Steve Scherf et al.
# Submitted via: ExactAudioCopy v0.99pb5
#
DISCID=b30ce90d
DTITLE=The Doobie Brothers - World Gone Crazy (2010)
DYEAR=2010
DGENRE=Rock
TTITLE0=A Brighter Day
TTITLE1=Chateau
TTITLE2=Nobody
TTITLE3=World Gone Crazy
TTITLE4=Far From Home
TTITLE5=Young Man's Game
TTITLE6=Don't Say Goodbye
TTITLE7=My Baby
TTITLE8=Old Juarez
TTITLE9=I Know We Won
TTITLE10=Law Dogs
TTITLE11=Little Prayer (bonus Track)
TTITLE12=New York Dream
EXTD=
EXTT0=
EXTT1=
EXTT2=
EXTT3=
EXTT4=
EXTT5=
EXTT6=
EXTT7=
EXTT8=
EXTT9=
EXTT10=
EXTT11=
EXTT12=
PLAYORDER=
